<svg xmlns="http://www.w3.org/2000/svg" viewBox="0 0 731.95 731.95"><defs><style>.cls-1{fill:none;stroke:#f7f7f7;stroke-miterlimit:10;stroke-width:77px;}</style></defs><g id="Layer_2" data-name="Layer 2"><g id="Layer_1-2" data-name="Layer 1"><path class="cls-1" d="M136.35,38.5H366a0,0,0,0,1,0,0V366a0,0,0,0,1,0,0H38.5a0,0,0,0,1,0,0V136.35A97.85,97.85,0,0,1,136.35,38.5Z"/><path class="cls-1" d="M366,38.5H595.59a97.85,97.85,0,0,1,97.85,97.85V366a0,0,0,0,1,0,0H366a0,0,0,0,1,0,0V38.5A0,0,0,0,1,366,38.5Z"/><path class="cls-1" d="M202.24,366H529.71a0,0,0,0,1,0,0V595.59a97.85,97.85,0,0,1-97.85,97.85H300.09a97.85,97.85,0,0,1-97.85-97.85V366A0,0,0,0,1,202.24,366Z"/></g></g></svg>